<?xml version="1.0" encoding="utf-8"?>
<!-- Generator: Adobe Illustrator 15.1.0, SVG Export Plug-In . SVG Version: 6.00 Build 0)  -->
<!DOCTYPE svg PUBLIC "-//W3C//DTD SVG 1.1//EN" "http://www.w3.org/Graphics/SVG/1.1/DTD/svg11.dtd">
<svg version="1.1" id="Layer_1" xmlns="http://www.w3.org/2000/svg" xmlns:xlink="http://www.w3.org/1999/xlink" x="0px" y="0px"
	 width="1920px" height="640px" viewBox="0 0 1920 640" enable-background="new 0 0 1920 640" xml:space="preserve">
<rect fill="#CCCCCC" width="1920" height="640"/>
<line fill="none" stroke="#FFFFFF" stroke-width="0.7066" stroke-miterlimit="10" x1="0" y1="0.901" x2="1920" y2="640"/>
<line fill="none" stroke="#FFFFFF" stroke-width="0.7066" stroke-miterlimit="10" x1="1920" y1="0.901" x2="0" y2="640"/>
<rect x="430" y="234" fill="#CCCCCC" width="1060" height="173"/>
<g>
	<path fill="#808080" d="M700.156,266.5H676.5v91h17v-33h4.719c9.25,0,16.322-2.656,21.219-7.844
		c4.896-5.188,7.344-12.479,7.344-22.188C726.781,275.719,717.906,266.5,700.156,266.5z M706.531,306.125
		c-2.042,2.292-5.146,3.375-9.312,3.375H693.5v-29h4.594c3.916,0,6.812,1.312,8.688,3.625s2.812,5.912,2.812,10.703
		C709.594,300.037,708.572,303.834,706.531,306.125z"/>
	<rect x="737.5" y="260.5" fill="#808080" width="16" height="97"/>
	<path fill="#808080" d="M791.531,286.438c-8.125,0-15.646,2.188-22.562,6.562l5.75,11.5c5.416-3.25,10.192-4.875,14.359-4.875
		c5.625,0,8.422,3.25,8.422,9.75v5l-9.234,0.375c-8,0.375-14.003,2.344-18.023,5.906c-4.021,3.562-6.027,9.011-6.027,16.344
		c0,6.834,1.471,12.167,4.408,16c2.938,3.834,6.97,5.75,12.095,5.75c4,0,7.313-0.521,9.938-2.062s5.167-4.188,7.625-8.188h0.375
		l3.312,9H814.5v-46.75c0-7.75-2.1-13.739-5.953-17.969C804.692,288.553,798.906,286.438,791.531,286.438z M797.5,330.75
		c0,4.542-0.891,8.178-2.703,10.906c-1.812,2.729-4.232,4.094-7.273,4.094c-4.084,0-6.121-2.875-6.121-8.625
		c0-3.875,0.887-6.791,2.658-8.75c1.771-1.958,4.537-3.041,8.329-3.25l5.11-0.25V330.75z"/>
	<path fill="#808080" d="M852.156,300.812c2.666,0,5.729,1.021,9.188,3.062l4.75-12.938c-2.25-1.416-4.792-2.5-7.625-3.25
		c-2.834-0.75-5.542-1.125-8.125-1.125c-8.584,0-14.928,3.021-19.031,9.062c-4.104,6.042-6.156,15.188-6.156,27.438
		c0,11.709,2.166,20.584,6.5,26.625c4.333,6.042,10.849,9.062,19.141,9.062c5.291,0,9.703-1.354,14.703-4.062v-14.625
		c-5,2.917-9.1,4.375-13.266,4.375c-3.5,0-6.123-1.781-7.664-5.344c-1.542-3.562-2.363-8.947-2.363-16.156
		c0-7.375,0.756-12.906,2.318-16.594S848.614,300.812,852.156,300.812z"/>
	<path fill="#808080" d="M898.469,286.562c-8.125,0-14.459,3.229-19,9.688c-4.542,6.459-6.812,15.438-6.812,26.938
		c0,11.334,2.51,20.094,7.531,26.281c5.021,6.188,11.65,9.281,20.359,9.281c7.458,0,13.953-1.604,18.953-4.812V340.25
		c-5,3.375-10.975,5.062-16.391,5.062c-4.25,0-7.467-1.729-9.883-4.75c-2.417-3.021-3.57-7.062-3.695-14.062H922.5v-8.438
		c0-9.958-1.953-17.697-6.328-23.219C911.797,289.323,906.052,286.562,898.469,286.562z M889.781,314.5
		c0.25-5,1.146-9.01,2.688-11.531c1.541-2.521,3.5-3.688,5.875-3.688c2.541,0,4.541,1.172,6,3.797
		c1.458,2.625,2.229,6.422,2.312,11.422H889.781z"/>
	<path fill="#808080" d="M966.094,286.406c-6.917,0-12.042,3.094-15.375,10.094h-0.875c0.5-7,0.656-11.833,0.656-14.625V260.5h-17
		v97h17v-33.438c0-7.541,0.817-13.322,2.359-17.344c1.541-4.021,4.174-6.031,8.008-6.031c5.125,0,7.633,5.104,7.633,15.312v41.5h17
		v-45.438c0-8.375-1.672-14.797-4.922-19.109S972.469,286.406,966.094,286.406z"/>
	<path fill="#808080" d="M1023.531,286.562c-8.5,0-15.146,3.178-19.938,9.531c-4.792,6.354-7.188,15.178-7.188,26.469
		c0,7.334,1.104,13.74,3.312,19.219c2.208,5.479,5.354,9.678,9.438,12.594c4.083,2.917,8.791,4.375,14.125,4.375
		c8.416,0,15.041-3.177,19.875-9.531c4.833-6.354,7.25-15.239,7.25-26.656c0-11.041-2.428-19.802-7.281-26.281
		C1038.271,289.803,1031.739,286.562,1023.531,286.562z M1023.406,344.562c-3.5,0-6.042-1.854-7.625-5.562
		c-1.584-3.708-2.375-9.188-2.375-16.438c0-7.291,0.791-12.739,2.375-16.344c1.583-3.604,4.125-5.406,7.625-5.406
		c3.458,0,5.989,1.803,7.594,5.406c1.604,3.604,2.406,9.053,2.406,16.344C1033.406,337.229,1030.072,344.562,1023.406,344.562z"/>
	<rect x="1062.5" y="260.5" fill="#808080" width="16" height="97"/>
	<path fill="#808080" d="M1125.5,283.5c0,2.542,0.281,7,0.781,13h-1c-1.959-3-4.094-6.188-6.406-7.75s-5.053-2.266-8.219-2.266
		c-6.375,0-11.375,3.248-15,9.664c-3.625,6.417-5.438,15.312-5.438,26.645c0,11.292,1.854,20.114,5.562,26.447
		c3.708,6.334,8.771,9.536,15.188,9.536c6.75,0,11.896-3.276,15.438-10.276h0.562l2.812,9h12.719v-97h-17V283.5z M1125.5,325.125
		c0,7.417-0.943,12.531-2.359,15.344c-1.417,2.812-3.69,4.219-6.773,4.219c-3.167,0-5.471-1.802-6.887-5.406
		c-1.417-3.604-2.131-9.01-2.131-16.219c0-7.208,0.694-12.697,2.091-16.469c1.396-3.771,3.634-5.656,6.718-5.656
		c3.291,0,5.702,1.646,7.14,4.938c1.438,3.292,2.202,8.979,2.202,17.062V325.125z"/>
	<path fill="#808080" d="M1179.531,286.562c-8.125,0-14.459,3.229-19,9.688c-4.542,6.459-6.812,15.438-6.812,26.938
		c0,11.334,2.51,20.094,7.531,26.281c5.021,6.188,12.119,9.281,20.828,9.281c7.458,0,13.422-1.604,19.422-4.812V340.25
		c-6,3.375-11.443,5.062-16.859,5.062c-4.25,0-7.701-1.729-10.117-4.75c-2.417-3.021-3.805-7.062-3.93-14.062h33.906v-8.438
		c0-9.958-2.422-17.697-6.797-23.219C1193.328,289.323,1187.114,286.562,1179.531,286.562z M1170.844,314.5
		c0.25-5,1.146-9.01,2.688-11.531c1.541-2.521,3.5-3.688,5.875-3.688c2.541,0,4.541,1.172,6,3.797
		c1.458,2.625,2.229,6.422,2.312,11.422H1170.844z"/>
	<path fill="#808080" d="M1244.719,286.562c-2.875,0-5.396,0.812-7.562,2.688c-2.167,1.875-4.167,5.25-6,9.25h-0.562l-1.875-11
		H1215.5v70h16v-35.812c0-6.083,1.161-10.719,3.328-13.906c2.166-3.188,5.31-4.781,9.352-4.781c1.875,0,3.415,0.209,4.582,0.625
		l1.947-16.125C1248.75,286.875,1246.76,286.562,1244.719,286.562z"/>
</g>
</svg>
